<svg width="365" height="126" viewBox="0 0 365 126" fill="none" xmlns="http://www.w3.org/2000/svg">
<rect x="0.5" y="0.5" width="364" height="125" rx="4.5" stroke="#9747FF" stroke-dasharray="10 5"/>
<path d="M62.9997 71.7457L57.2568 78.7059V106H68.7426V78.7059L62.9997 71.7457Z" fill="#FAE58B"/>
<path d="M94.8375 92.1162L86.0078 99.6229L68.7432 78.706V69.6323L77.537 71.1992L94.8375 92.1162Z" fill="#FAE58B"/>
<path d="M79.5469 59.7203L71.7939 64.239L77.5368 71.1991L103.99 75.9364L106 64.4576L79.5469 59.7203Z" fill="#FAE58B"/>
<path d="M97.0624 35.9974L73.7677 49.6263L70.7168 58.1534L79.5106 59.7203L102.769 46.0915L97.0624 35.9974Z" fill="#FAE58B"/>
<path d="M82.9925 23.972L73.8038 49.6263L66.0509 54.1814L63 45.6542L72.1886 20L82.9925 23.972Z" fill="#FAE58B"/>
<path d="M63.0003 45.6542L59.9494 54.1814L52.1965 49.6263L43.0078 23.972L53.8116 20L63.0003 45.6542Z" fill="#FAE58B"/>
<path d="M52.196 49.6263L28.9372 35.9974L23.1943 46.0915L46.4531 59.7203L55.2469 58.1534L52.196 49.6263Z" fill="#FAE58B"/>
<path d="M46.4533 59.7203L20 64.4576L22.01 75.9364L48.4992 71.1991L54.2421 64.239L46.4533 59.7203Z" fill="#FAE58B"/>
<path d="M48.4629 71.1992L31.1982 92.1162L39.9921 99.6229L57.2567 78.706V69.6323L48.4629 71.1992Z" fill="#FAE58B"/>
<path d="M180.627 70.574L172.173 73.7303L158.526 97.3676L168.473 103.111L182.12 79.4732L180.627 70.574Z" fill="#FAE58B"/>
<path d="M198.014 104.134L186.613 106.22L182.12 79.4733L186.657 71.6152L193.489 77.3691L198.014 104.134Z" fill="#FAE58B"/>
<path d="M200.969 68.4332L191.996 68.47L193.489 77.3691L214.03 94.6983L221.51 85.7624L200.969 68.4332Z" fill="#FAE58B"/>
<path d="M228.001 56.6464L201.012 56.802L194.107 62.6612L200.939 68.4152L227.896 68.2416L228.001 56.6464Z" fill="#FAE58B"/>
<path d="M221.828 39.1971L201.043 56.8199L192.051 56.8883L193.673 47.9781L214.458 30.3552L221.828 39.1971Z" fill="#FAE58B"/>
<path d="M193.672 47.9781L186.767 53.8374L182.33 46.0161L187.2 19.2045L198.542 21.1666L193.672 47.9781Z" fill="#FAE58B"/>
<path d="M182.33 46.0161L169.002 22.5838L158.981 28.4541L172.31 51.8863L180.709 54.9262L182.33 46.0161Z" fill="#FAE58B"/>
<path d="M172.31 51.8864L147.032 42.7624L143.033 53.7083L168.342 62.8503L176.796 59.6941L172.31 51.8864Z" fill="#FAE58B"/>
<path d="M168.311 62.8323L142.901 72.3146L146.763 83.2126L172.173 73.7303L176.71 65.8722L168.311 62.8323Z" fill="#FAE58B"/>
<path d="M293.581 65.3677L285.326 61.7236L259.051 69.113L262.161 80.1699L288.436 72.7805L293.581 65.3677Z" fill="#FAE58B"/>
<path d="M282.591 101.531L272.974 95.0633L288.436 72.7806L297.171 70.324L298.043 79.2137L282.591 101.531Z" fill="#FAE58B"/>
<path d="M309.637 78.0409L303.188 71.8009L298.043 79.2136L300.644 105.962L312.238 104.789L309.637 78.0409Z" fill="#FAE58B"/>
<path d="M337.217 88.48L317.79 69.7451L308.755 69.1167L309.628 78.0063L329.045 96.7067L337.217 88.48Z" fill="#FAE58B"/>
<path d="M344.983 71.6797L317.8 69.7797L311.316 63.5495L318.698 58.304L345.882 60.204L344.983 71.6797Z" fill="#FAE58B"/>
<path d="M318.698 58.3039L309.663 57.6755L311.949 48.9789L334.158 33.188L340.906 42.513L318.698 58.3039Z" fill="#FAE58B"/>
<path d="M311.95 48.9789L318.773 22.899L307.501 20.1033L300.678 46.1833L304.567 54.2244L311.95 48.9789Z" fill="#FAE58B"/>
<path d="M300.677 46.1833L288.955 22.0005L278.449 27.0431L290.181 51.2605L298.436 54.9046L300.677 46.1833Z" fill="#FAE58B"/>
<path d="M290.172 51.2259L265.362 40.2689L260.516 50.7667L285.326 61.7237L294.061 59.2671L290.172 51.2259Z" fill="#FAE58B"/>
</svg>
